<?xml version="1.0" encoding="UTF-8" standalone="no"?>
<svg
   width="1104"
   height="916.06"
   viewBox="0 0 1104 916.06"
   fill="none"
   version="1.1"
   id="svg80"
   sodipodi:docname="16-edited-colors.svg"
   inkscape:version="1.1.2 (b8e25be833, 2022-02-05)"
   xmlns:inkscape="http://www.inkscape.org/namespaces/inkscape"
   xmlns:sodipodi="http://sodipodi.sourceforge.net/DTD/sodipodi-0.dtd"
   xmlns="http://www.w3.org/2000/svg"
   xmlns:svg="http://www.w3.org/2000/svg">
  <defs
     id="defs84" />
  <sodipodi:namedview
     id="namedview82"
     pagecolor="#ffffff"
     bordercolor="#666666"
     borderopacity="1.0"
     inkscape:pageshadow="2"
     inkscape:pageopacity="0.0"
     inkscape:pagecheckerboard="0"
     showgrid="false"
     inkscape:zoom="0.39454509"
     inkscape:cx="-509.44748"
     inkscape:cy="352.30447"
     inkscape:window-width="1920"
     inkscape:window-height="974"
     inkscape:window-x="-11"
     inkscape:window-y="-11"
     inkscape:window-maximized="1"
     inkscape:current-layer="svg80"
     fit-margin-top="0"
     fit-margin-left="0"
     fit-margin-right="0"
     fit-margin-bottom="0" />
  <path
     d="m 539,307.056 c 0,-4.971 -4.029,-9 -9,-9 -4.971,0 -9,4.029 -9,9 V 907.06 c 0,4.97 4.029,9 9,9 4.971,0 9,-4.03 9,-9 z"
     fill="#2B254E"
     id="path2"
     style="fill:#013042;fill-opacity:1" />
  <path
     fill-rule="evenodd"
     clip-rule="evenodd"
     d="m 184,335.055 -7.5,35 -46,12 -81.5,23 28,-35 -45.5,9 40,-23.426 -35,-0.074 -36.5,-23.5 43.5,3.074 c 40.667,4.951 61,7.426 61,7.426 0,0 -20.333,-12.5 -61,-37.5 z m 734,27 140.5,-30 c -21.67,15.049 -32.5,22.574 -32.5,22.574 0,0 12.67,2.475 38,7.426 l 40,27 -40,-10.926 -51.5,-0.074 58,28 -64,-17 46.5,43 -74.5,-35 h -53 z M 543.016,79.035 541.828,51.007 530.83,29.449 559.742,49.785 558.152,24.096 525.106,0 l 13.225,2.523 27.075,16.13 8.124,26.192 7.146,-39.347 6.201,31.903 16.184,-21.916 -10.768,41.446 21.207,-24.376 -18.5,50.5 z m -127.678,585.837 26.378,17.582 -5.81,46.837 -8.855,83.509 -8.14,-11.96 -3.5,-31 -33.5,43 14.337,-54.352 -21.337,42.352 -19,23 6.5,-28.5 c 13,-32.663 19.5,-48.997 19.5,-48.997 0,0 -6.5,10.667 -19.5,31.997 l -19.935,9.53 z m 135.01,22.009 30.665,8.036 9.755,46.177 18.815,81.846 -12.083,-10.31 -11.76,-27.39 -1.148,0.87 -0.092,58.02 -6.5,-12.5 -11.5,-75.501 H 565 l -4,56.501 -7,35.5 h -2 l -4.5,-35.5 v -31 l -8.5,24.5 -17.5,20.77 z"
     fill="#FFD25B"
     id="path4"
     style="fill:#f2b705;fill-opacity:1" />
  <path
     fill-rule="evenodd"
     clip-rule="evenodd"
     d="m 530,297.629 -52.5,134.5 H 605 l -37.5,-124.5 z"
     fill="#FFD25B"
     id="path6"
     style="fill:#f2b705;fill-opacity:1" />
  <mask
     id="mask0"
     mask-type="alpha"
     maskUnits="userSpaceOnUse"
     x="752"
     y="654"
     width="238"
     height="303">
    <path
       d="m 779.5,835.056 -21.428,56.041 c -6.231,16.293 -7.303,34.109 -3.072,51.032 3.667,5.333 11.833,9 24.5,11 12.667,2 21.852,2.051 27.555,0.154 l 6.964,-7.546 c 8.9,-9.644 15.815,-20.946 20.35,-33.261 L 890.217,760.823 898,760.629 v 145.168 c 0,16.547 4.704,32.752 13.564,46.727 7.291,2.403 15.769,3.605 25.436,3.605 9.667,0 16.167,-1.833 19.5,-5.5 10.752,-12.707 17.445,-28.348 19.214,-44.899 L 990,772.056 973,664.129 c -10.222,-2.667 -22.722,-4 -37.5,-4 -14.778,0 -44.778,-1.858 -90,-5.573 z"
       fill="#ffffff"
       id="path8" />
  </mask>
  <g
     mask="url(#mask0)"
     id="g15"
     transform="translate(-368,-232)">
    <path
       d="m 779.5,835.056 -21.428,56.041 c -6.231,16.293 -7.303,34.109 -3.072,51.032 3.667,5.333 11.833,9 24.5,11 12.667,2 21.852,2.051 27.555,0.154 l 6.964,-7.546 c 8.9,-9.644 15.815,-20.946 20.35,-33.261 L 890.217,760.823 898,760.629 v 145.168 c 0,16.547 4.704,32.752 13.564,46.727 7.291,2.403 15.769,3.605 25.436,3.605 9.667,0 16.167,-1.833 19.5,-5.5 10.752,-12.707 17.445,-28.348 19.214,-44.899 L 990,772.056 973,664.129 c -10.222,-2.667 -22.722,-4 -37.5,-4 -14.778,0 -44.778,-1.858 -90,-5.573 z"
       fill="#FF6D5B"
       id="path11"
       style="fill:#f28705;fill-opacity:1" />
    <path
       fill-rule="evenodd"
       clip-rule="evenodd"
       d="m 848.666,874.146 -35.166,7.483 36.736,-37.441 -10.263,-62.123 37.401,21.988 z"
       fill="#FFD25B"
       id="path13"
       style="fill:#f2b705;fill-opacity:1" />
  </g>
  <path
     fill-rule="evenodd"
     clip-rule="evenodd"
     d="m 602,306.556 c 27.333,19.333 55.17,33 83.5,41 28.33,8 110.17,8 245.5,0 v 84.573 l -174.94,6.428 c -10.31,0.379 -20.62,-0.84 -30.56,-3.613 L 622,406.056 l 63.5,181 -22.79,2.691 -12.21,-11.618 -5,11.5 -30.251,5.722 L 605,578.129 594.658,597.782 550,603.056 l 11,-292.5 z m -107.5,-8.5 38,6.5 -104,298.5 -43.5,-9.427 -4,-12.5 -11.69,9.214 -10.31,-2.214 v -22 L 339.615,585.255 315,581.056 428.5,376.556 c -35.333,15.049 -61.333,22.573 -78,22.573 -16.667,0 -76.333,0 -179,0 v -39.5 -39.073 c 117.667,-6.667 190.167,-10 217.5,-10 27.333,0 62.5,-4.167 105.5,-12.5 z"
     fill="#2B254E"
     id="path17"
     style="fill:#013042;fill-opacity:1" />
  <path
     fill-rule="evenodd"
     clip-rule="evenodd"
     d="m 931,347.556 h 87.75 c 4,0 7.25,3.246 7.25,7.25 0,4.004 -3.25,7.25 -7.25,7.25 H 931 Z m -846.75,0 H 172 v 14.5 H 84.25 c -4.004,0 -7.25,-3.246 -7.25,-7.25 0,-4.004 3.246,-7.25 7.25,-7.25 z"
     fill="#847DAA"
     id="path19"
     style="fill:#0378a6;fill-opacity:1" />
  <path
     fill-rule="evenodd"
     clip-rule="evenodd"
     d="m 587.145,331.555 10.287,159.517 0.068,-0.017 1.5,16.074 -5.5,-0.074 v -14.559 l -9.338,0.859 1.338,14.274 H 580 v -13.891 l -8.82,0.811 1.32,14.08 H 567 v -13.696 l -9,0.828 v 13.868 h -4.5 l 0.486,-14.101 -3.757,-163.973 c -13.456,0 -25.032,0 -25.729,0 -1.5,0 -20.5,-37 49.5,-31.5 24.571,1.931 36.71,-3.594 44,0 4.861,2.396 5.694,9.063 2.5,20 -11.666,7.667 -21.666,11.5 -30,11.5 -0.917,0 -2.047,0 -3.355,0 z"
     fill="#60588E"
     id="path21"
     style="fill:#026084;fill-opacity:1" />
  <path
     fill-rule="evenodd"
     clip-rule="evenodd"
     d="m 383.5,201.129 c 4.514,19.856 17.514,35.331 39,46.427 21.486,11.095 54.486,19.595 99,25.5 l 132.82,0.065 23.04,-10.176 12.8,-5.651 c 14.38,-6.353 26.88,-16.327 36.26,-28.948 l 4.58,-6.155 c -0.82,-4.541 -13.65,-11.895 -38.5,-22.062 -24.85,-10.166 -57.21,-20.972 -97.086,-32.416 -15.994,-10.805 -39.703,-13.394 -71.128,-7.767 -28.31,5.069 -71.894,5.029 -124.286,26.183 -3.843,1.552 -9.343,6.552 -16.5,15 z"
     fill="#2B254E"
     id="path23"
     style="fill:#013042;fill-opacity:1" />
  <path
     fill-rule="evenodd"
     clip-rule="evenodd"
     d="m 482.5,292.056 c -6,1.333 -9,6.166 -9,14.5 0,8.333 17,16.691 51,25.073 4.224,-6.157 8.391,-10.49 12.5,-13 4.109,-2.51 11.442,-5.201 22,-8.073 z"
     fill="#847DAA"
     id="path25"
     style="fill:#0378a6;fill-opacity:1" />
  <mask
     id="mask1"
     mask-type="alpha"
     maskUnits="userSpaceOnUse"
     x="808"
     y="367"
     width="222"
     height="175">
    <path
       d="m 918.862,541.04 c 22.364,0 31.416,0.581 59.872,-5.833 7.368,-1.661 8.443,-5.93 14.639,-9.472 3.948,-2.258 8.977,-5.469 12.357,-6.829 23.4,-9.428 23.67,-39.653 23.67,-64.963 0,-36.28 -42.742,-69.478 -73.323,-82.153 -17.194,-7.127 -14.952,-1.568 -37.215,-1.568 -15.389,0 -3.978,-5.89 -17.325,-0.744 -40.302,15.537 -88.23,45.472 -92.528,81.116 -3.145,26.084 5.146,63.309 35.555,75.196 1.808,0.706 9.916,3.374 13.608,5.105 3.529,1.655 4.401,4.703 6.097,5.392 16.111,6.545 34.071,4.753 54.593,4.753 z"
       fill="#ffffff"
       id="path27" />
  </mask>
  <g
     mask="url(#mask1)"
     id="g32"
     transform="translate(-368,-232)">
    <path
       d="m 909.798,540.562 c 22.241,2.337 31.183,3.861 60.154,0.456 7.501,-0.881 9.016,-5.014 15.549,-7.89 4.162,-1.832 9.5,-4.5 13,-5.5 24.259,-6.93 27.689,-36.961 30.339,-62.132 3.79,-36.081 -35.252,-73.566 -64.339,-89.368 -16.356,-8.885 -14.707,-3.122 -36.848,-5.449 -15.305,-1.609 -3.34,-6.273 -17.152,-2.551 -41.706,11.239 -92.5,36 -100.5,71 -5.855,25.612 -1.5,63.5 27.5,78.5 1.724,0.892 9.509,4.393 13,6.5 3.337,2.015 3.884,5.138 5.5,6 15.338,8.193 33.387,8.289 53.797,10.434 z"
       fill="#FF6D5B"
       id="path30"
       style="fill:#f28705;fill-opacity:1" />
  </g>
  <path
     fill-rule="evenodd"
     clip-rule="evenodd"
     d="m 508.488,184.008 13.672,1.921 c 4.886,0.687 9.121,3.732 11.328,8.144 5.57,11.136 8.243,17.502 8.019,19.099 -0.224,1.594 -4.388,5.91 -12.492,12.948 -3.276,2.846 -7.625,4.133 -11.923,3.529 l -15.843,-2.226 c -4.634,-0.652 -8.698,-3.428 -10.99,-7.507 -4.281,-7.619 -6.265,-12.544 -5.952,-14.774 0.318,-2.256 3.792,-7.49 10.423,-15.703 3.312,-4.103 8.536,-6.165 13.758,-5.431 z m 98.481,11.383 9.837,0.86 c 5.178,0.453 9.752,3.554 12.09,8.195 5.224,10.365 7.764,16.334 7.624,17.908 -0.14,1.561 -3.54,5.926 -10.204,13.094 -3.15,3.387 -7.685,5.131 -12.292,4.728 l -11.988,-1.049 c -4.95,-0.433 -9.365,-3.29 -11.788,-7.628 -3.877,-6.942 -5.721,-11.498 -5.531,-13.668 0.194,-2.218 2.991,-7.454 8.392,-15.709 3.026,-4.627 8.352,-7.213 13.86,-6.731 z"
     fill="#ffffff"
     id="path34" />
  <path
     fill-rule="evenodd"
     clip-rule="evenodd"
     d="m 518,212.629 c -3.866,0 -7,-3.134 -7,-7 0,-3.866 3.134,-7 7,-7 3.866,0 7,3.134 7,7 0,3.866 -3.134,7 -7,7 z m 94.819,11.182 c -3.866,0 -7,-3.134 -7,-7 0,-3.866 3.134,-7 7,-7 3.866,0 7,3.134 7,7 0,3.866 -3.134,7 -7,7 z m -45.185,-20.273 c 0.274,-0.661 0.88,-1.125 1.589,-1.217 1.096,-0.143 2.099,0.63 2.241,1.725 l 5.206,40.045 c 0.021,0.162 0.022,0.325 0.004,0.487 -0.127,1.097 -1.119,1.884 -2.216,1.758 l -20.824,-2.403 c -0.184,-0.021 -0.365,-0.068 -0.537,-0.14 -1.02,-0.423 -1.504,-1.593 -1.081,-2.613 z m -88.894,40.513 23.617,0.854 17.507,13.813 20.994,-7.984 15.511,13.952 24.346,-10.223 13.167,9.103 12.515,-7.391 28.023,6.561 -27.43,1.919 -18.117,13.296 -11.95,-13.199 -23.243,11.65 -16.614,-15.379 -16.365,9.666 -19.746,-17.165 z"
     fill="#2b254e"
     id="path36" />
  <path
     fill-rule="evenodd"
     clip-rule="evenodd"
     d="m 528.439,80.655 -2.939,32.9 77.5,9.5 1.496,-34.031 c 0.295,-6.712 -4.22,-12.687 -10.757,-14.237 -13.632,-3.232 -24.343,-5.289 -32.133,-6.17 -6.211,-0.703 -12.774,-0.939 -19.688,-0.708 -7.067,0.235 -12.849,5.703 -13.479,12.746 z"
     fill="#60588E"
     id="path38"
     style="fill:#026084;fill-opacity:1" />
  <mask
     id="mask2"
     mask-type="alpha"
     maskUnits="userSpaceOnUse"
     x="751"
     y="308"
     width="348"
     height="148">
    <path
       d="m 898,308.129 c -20.333,43.333 -49.333,72.642 -87,87.926 -24.872,10.093 -42.567,15.925 -51.804,25.707 -2.928,3.101 -5.493,6.89 -7.696,11.367 8.818,2.773 15.318,4.607 19.5,5.5 51.5,11 89.832,4.913 113,0.5 11.06,-2.107 27.84,-6.19 50.341,-12.249 12.874,-3.466 26.311,-4.324 39.52,-2.521 55.059,7.512 88.779,13.269 101.139,17.27 13.82,4.472 21.71,8.948 23.68,13.426 1.48,-10.358 -2.22,-18.496 -11.09,-24.415 -4.32,-2.883 -29.55,-8.572 -48.09,-20.585 -10.1,-6.546 -24.22,-19.047 -42.344,-37.502 -10.799,-10.995 -18.323,-24.78 -21.73,-39.811 L 972,317.629 Z"
       fill="#ffffff"
       id="path40" />
  </mask>
  <g
     mask="url(#mask2)"
     id="g54"
     transform="translate(-368,-232)">
    <path
       d="m 898,308.129 c -20.333,43.333 -49.333,72.642 -87,87.926 -24.872,10.093 -42.567,15.925 -51.804,25.707 -2.928,3.101 -5.493,6.89 -7.696,11.367 8.818,2.773 15.318,4.607 19.5,5.5 51.5,11 89.832,4.913 113,0.5 11.06,-2.107 27.84,-6.19 50.341,-12.249 12.874,-3.466 26.311,-4.324 39.52,-2.521 55.059,7.512 88.779,13.269 101.139,17.27 13.82,4.472 21.71,8.948 23.68,13.426 1.48,-10.358 -2.22,-18.496 -11.09,-24.415 -4.32,-2.883 -29.55,-8.572 -48.09,-20.585 -10.1,-6.546 -24.22,-19.047 -42.344,-37.502 -10.799,-10.995 -18.323,-24.78 -21.73,-39.811 L 972,317.629 Z"
       fill="#60588E"
       id="path43"
       style="fill:#026084;fill-opacity:1" />
    <mask
       id="mask3"
       mask-type="alpha"
       maskUnits="userSpaceOnUse"
       x="852"
       y="311"
       width="92"
       height="71">
      <path
         d="m 852.5,371.129 32,-21 13.5,31.5 16,-31.5 30,-4 -30,-13.5 -20.5,-21 z"
         fill="#ffffff"
         id="path45" />
    </mask>
    <g
       mask="url(#mask3)"
       id="g52">
      <path
         d="m 852.5,371.129 32,-21 13.5,31.5 16,-31.5 30,-4 -30,-13.5 -20.5,-21 z"
         fill="#2B254E"
         id="path48"
         style="fill:#013042;fill-opacity:1" />
      <path
         fill-rule="evenodd"
         clip-rule="evenodd"
         d="m 906,325.129 -21.5,51.5 13.5,12.5 60.5,-42.5 z"
         fill="#FFD25B"
         id="path50"
         style="fill:#f2b705;fill-opacity:1" />
    </g>
  </g>
  <path
     d="m 175,117.629 c 22.644,0 41,-18.356 41,-41 0,-22.644 -18.356,-41 -41,-41 -22.644,0 -41,18.356 -41,41 0,22.644 18.356,41 41,41 z"
     fill="#ebeef6"
     id="path56" />
  <path
     fill-rule="evenodd"
     clip-rule="evenodd"
     d="m 265,185.629 -7,21.5 c -16.667,0 -25,0 -25,0 0,0 8.333,2.167 25,6.5 2.667,17.667 4,26.5 4,26.5 0,0 1.667,-8 5,-24 l 21.5,-5 -21.5,-4 z"
     fill="#FFD25B"
     id="path58"
     style="fill:#f2b705;fill-opacity:1" />
  <path
     fill-rule="evenodd"
     clip-rule="evenodd"
     d="m 778,76.629 -7,21.5 c -16.67,0 -25,0 -25,0 0,0 8.33,2.167 25,6.5 2.67,17.667 4,26.5 4,26.5 0,0 1.67,-8 5,-24 l 21.5,-5 -21.5,-4 z"
     fill="#FFD25B"
     id="path60"
     style="fill:#f2b705;fill-opacity:1" />
  <path
     fill-rule="evenodd"
     clip-rule="evenodd"
     d="m 825.22,270.629 -5.3,16.174 c -12.61,0 -18.92,0 -18.92,0 0,0 6.31,1.63 18.92,4.89 2.02,13.291 3.03,19.936 3.03,19.936 0,0 1.26,-6.018 3.78,-18.055 l 16.27,-3.762 -16.27,-3.009 z"
     fill="#FFD25B"
     id="path62"
     style="fill:#f2b705;fill-opacity:1" />
  <path
     fill-rule="evenodd"
     clip-rule="evenodd"
     d="m 368.333,74.129 -4.666,14.202 c -11.111,0 -16.667,0 -16.667,0 0,0 5.556,1.431 16.667,4.293 1.777,11.67 2.666,17.505 2.666,17.505 0,0 1.111,-5.284 3.334,-15.853 L 384,90.973 369.667,88.331 Z"
     fill="#FFD25B"
     id="path64"
     style="fill:#f2b705;fill-opacity:1" />
  <path
     fill-rule="evenodd"
     clip-rule="evenodd"
     d="m 266.713,514.712 c 0.003,0.036 0.003,0.072 0,0.108 -0.199,2.268 -12.127,4.241 -26.803,2.955 -14.675,-1.287 -26.108,-4.102 -25.909,-6.371 0.01,-0.12 0.053,-0.236 0.127,-0.348 l 3.872,-19.428 -0.186,-18.805 2.288,-23.561 51.579,4.46 -7.114,19.807 2.225,41.188 z m 634.617,36.833 c 0.01,0.033 0.02,0.068 0.02,0.104 0.4,2.242 -10.61,7.235 -25.12,9.791 -14.51,2.556 -26.28,2.795 -26.68,0.552 -0.02,-0.131 0,-0.268 0.05,-0.41 l -0.1,-16.954 -8.43,-20.876 c -1.37,-3.381 -2.03,-7.003 -1.96,-10.648 l 0.25,-12.716 50.98,-9.041 c 2.26,6.618 3.65,12.378 4.16,17.281 0.51,4.903 0.51,12.403 0,22.5 l 6.9,20.401 z m -106.58,-6.256 c 0,0.036 0,0.072 0,0.108 -0.16,2.271 -12.05,4.452 -26.75,3.422 -14.69,-1.03 -26.17,-3.646 -26.01,-5.917 0.01,-0.117 0.04,-0.23 0.11,-0.341 l 2.9,-17.933 0.13,-20.369 1.87,-23.597 51.65,3.56 -7.15,34.906 3.33,26.165 z"
     fill="#847DAA"
     id="path66"
     style="fill:#0378a6;fill-opacity:1" />
  <path
     fill-rule="evenodd"
     clip-rule="evenodd"
     d="m 245.549,455.78 c -14.056,-1.232 -25.29,-4.069 -25.091,-6.338 0.198,-2.268 11.752,-3.108 25.808,-1.876 14.055,1.232 25.289,4.069 25.091,6.338 -0.199,2.268 -11.753,3.108 -25.808,1.876 z m 620.081,44.319 c -13.9,2.447 -25.48,2.614 -25.88,0.371 -0.39,-2.242 10.55,-6.044 24.45,-8.492 13.89,-2.448 25.48,-2.614 25.87,-0.372 0.4,2.243 -10.54,6.045 -24.44,8.493 z m -93.07,-13.363 c -14.08,-0.987 -25.36,-3.628 -25.2,-5.9 0.16,-2.271 11.7,-3.313 25.77,-2.326 14.08,0.986 25.36,3.628 25.2,5.899 -0.16,2.272 -11.7,3.313 -25.77,2.327 z"
     fill="#60588E"
     id="path68"
     style="fill:#013042;fill-opacity:1" />
  <path
     d="m 257.864,491.461 -0.527,6.016 -5.689,-0.497 -0.395,4.512 -7.316,-0.641 0.395,-4.511 -20.077,-1.757 0.526,-6.016 21.58,-15.421 7.316,0.641 -1.503,17.177 z m -25.24,-0.951 11.91,1.042 0.923,-10.555 z m 654.136,40.866 1.05,5.948 -5.63,0.991 0.79,4.461 -7.23,1.275 -0.79,-4.46 -19.84,3.499 -1.05,-5.947 16.85,-20.48 7.23,-1.276 3,16.981 z m -24.63,5.614 11.78,-2.076 -1.84,-10.434 z M 770,532.628 c -10.85,0 -16,-4.977 -16,-14.038 0,-9.023 5.15,-13.962 16,-13.962 10.81,0 16,4.978 16,13.962 0,9.022 -5.19,14.038 -16,14.038 z m 0,-5 c 6.18,0 9,-3.212 9,-8.54 0,-5.287 -2.82,-8.46 -9,-8.46 -6.18,0 -9,3.132 -9,8.46 0,5.368 2.82,8.54 9,8.54 z"
     fill="#ffffff"
     id="path70" />
  <path
     fill-rule="evenodd"
     clip-rule="evenodd"
     d="m 254.954,382.742 4.211,0.881 -9.498,67.376 c -0.155,1.101 -1.173,1.868 -2.274,1.713 -0.044,-0.006 -0.088,-0.014 -0.131,-0.023 -1.185,-0.248 -1.975,-1.372 -1.806,-2.571 z m 524.386,30.89 4.23,0.807 -8.33,67.532 c -0.13,1.104 -1.14,1.888 -2.24,1.752 -0.04,-0.005 -0.09,-0.012 -0.13,-0.021 -1.19,-0.227 -2,-1.337 -1.85,-2.538 z m 70,14.051 4.27,-0.538 12.96,66.798 c 0.21,1.092 -0.5,2.148 -1.6,2.36 -0.04,0.008 -0.08,0.015 -0.13,0.021 -1.2,0.151 -2.31,-0.655 -2.54,-1.843 z"
     fill="#2b254e"
     id="path72" />
  <path
     fill-rule="evenodd"
     clip-rule="evenodd"
     d="m 162,102.129 c 1.918,0 3.402,-0.576 4.5,-2 0.8,-1.037 1.5,-2.72 1.5,-4 0,-1.613 -0.293,-3.362 -1.5,-4.5 -1.066,-1.005 -2.946,-1.5 -4.5,-1.5 -1.583,0 -3.428,0.463 -4.5,1.5 -1.173,1.134 -1.5,2.913 -1.5,4.5 0,3.037 2.686,6 6,6 z"
     fill="#c1c6d3"
     id="path74" />
  <path
     fill-rule="evenodd"
     clip-rule="evenodd"
     d="m 185,70.629 c 2.876,0 5.102,-0.863 6.75,-3 1.2,-1.556 2.25,-4.08 2.25,-6 0,-2.42 -0.44,-5.043 -2.25,-6.75 -1.598,-1.508 -4.419,-2.25 -6.75,-2.25 -2.374,0 -5.142,0.695 -6.75,2.25 -1.759,1.701 -2.25,4.37 -2.25,6.75 0,4.556 4.029,9 9,9 z"
     fill="#c1c6d3"
     id="path76" />
  <path
     fill-rule="evenodd"
     clip-rule="evenodd"
     d="m 197.884,86.945 c 1.22,-0.762 1.935,-1.718 2.068,-3.06 0.096,-0.978 -0.127,-2.327 -0.636,-3.141 -0.641,-1.026 -1.523,-2.021 -2.743,-2.266 -1.077,-0.216 -2.47,0.217 -3.458,0.835 -1.007,0.629 -1.996,1.657 -2.266,2.742 -0.295,1.188 0.204,2.449 0.834,3.458 1.208,1.932 4.094,2.749 6.201,1.432 z"
     fill="#c1c6d3"
     id="path78" />
</svg>
