<?xml version="1.0" encoding="UTF-8" standalone="no"?>
<!-- Created with Inkscape (http://www.inkscape.org/) -->

<svg
   version="1.1"
   id="svg3770"
   width="305.15503"
   height="177.50735"
   viewBox="0 0 305.15502 177.50735"
   sodipodi:docname="name-logo-small.svg"
   inkscape:version="1.1.2 (b8e25be833, 2022-02-05)"
   xmlns:inkscape="http://www.inkscape.org/namespaces/inkscape"
   xmlns:sodipodi="http://sodipodi.sourceforge.net/DTD/sodipodi-0.dtd"
   xmlns="http://www.w3.org/2000/svg"
   xmlns:svg="http://www.w3.org/2000/svg">
  <defs
     id="defs3774">
    <filter
       style="color-interpolation-filters:sRGB"
       inkscape:label="Neon Draw"
       id="filter4367"
       x="-0.0090167141"
       y="-0.012022286"
       width="1.0180334"
       height="1.0240446">
      <feBlend
         mode="normal"
         result="blend"
         in2="SourceGraphic"
         id="feBlend4337" />
      <feGaussianBlur
         in="blend"
         stdDeviation="11.8791"
         result="blur1"
         id="feGaussianBlur4339" />
      <feColorMatrix
         values="1 0 0 0 0 0 1 0 0 0 0 0 1 0 0 0 0 0 50 0"
         result="color1"
         id="feColorMatrix4341" />
      <feComponentTransfer
         result="component1"
         id="feComponentTransfer4349">
        <feFuncR
           type="discrete"
           tableValues="0 0.3 0.3 0.3 0.3 0.6 0.6 0.6 0.6 1 1"
           id="feFuncR4343" />
        <feFuncG
           type="discrete"
           tableValues="0 0.3 0.3 0.3 0.3 0.6 0.6 0.6 0.6 1 1"
           id="feFuncG4345" />
        <feFuncB
           type="discrete"
           tableValues="0 0.3 0.3 0.3 0.3 0.6 0.6 0.6 0.6 1 1"
           id="feFuncB4347" />
      </feComponentTransfer>
      <feGaussianBlur
         in="component1"
         stdDeviation="8.31834"
         result="blur2"
         id="feGaussianBlur4351" />
      <feColorMatrix
         values="1 0 0 0 0 0 1 0 0 0 0 0 1 0 0 0 0 0 50 0"
         result="color2"
         id="feColorMatrix4353" />
      <feComponentTransfer
         in="color2"
         result="component2"
         id="feComponentTransfer4361">
        <feFuncR
           type="table"
           tableValues="0 1 1 1 0 0 0 1 1 1 0 0 0 1 1 1 0 0 0 1"
           id="feFuncR4355" />
        <feFuncG
           type="table"
           tableValues="0 1 1 1 0 0 0 1 1 1 0 0 0 1 1 1 0 0 0 1"
           id="feFuncG4357" />
        <feFuncB
           type="table"
           tableValues="0 1 1 1 0 0 0 1 1 1 0 0 0 1 1 1 0 0 0 1"
           id="feFuncB4359" />
      </feComponentTransfer>
      <feComposite
         in="component2"
         in2="blur2"
         k3="1"
         operator="arithmetic"
         k2="1"
         result="composite1"
         id="feComposite4363"
         k1="0"
         k4="0" />
      <feComposite
         in="composite1"
         in2="SourceGraphic"
         operator="in"
         result="composite2"
         id="feComposite4365" />
    </filter>
  </defs>
  <sodipodi:namedview
     id="namedview3772"
     pagecolor="#ffffff"
     bordercolor="#666666"
     borderopacity="1.0"
     inkscape:pageshadow="2"
     inkscape:pageopacity="0.0"
     inkscape:pagecheckerboard="0"
     showgrid="false"
     fit-margin-top="0"
     fit-margin-left="0"
     fit-margin-right="0"
     fit-margin-bottom="0"
     inkscape:zoom="1.5277778"
     inkscape:cx="104.72727"
     inkscape:cy="115.2"
     inkscape:window-width="1920"
     inkscape:window-height="974"
     inkscape:window-x="-11"
     inkscape:window-y="-11"
     inkscape:window-maximized="1"
     inkscape:current-layer="g7562" />
  <g
     inkscape:groupmode="layer"
     id="g7562"
     inkscape:label="Image 1 copy"
     transform="translate(-858.15704,-2553.8038)">
    <g
       id="g7560"
       transform="matrix(0.20135033,0,0,0.20135033,690.52187,2042.5144)"
       style="stroke:#f29f05;stroke-opacity:1">
      <g
         id="g7556"
         transform="translate(-824.01754,-348.47989)"
         style="display:inline;stroke:#f29f05;stroke-opacity:1">
        <path
           style="fill:none;stroke:#f29f05;stroke-width:50;stroke-linecap:round;stroke-linejoin:miter;stroke-miterlimit:4;stroke-dasharray:none;stroke-opacity:1"
           d="m 1936.691,2937.1738 c 2.2471,12.0049 5.6127,23.8536 6.7413,36.0148 0.1638,1.7646 -2.3991,-2.6215 -3.7487,-3.7699 -4.7461,-4.0386 -10.148,-7.6096 -15.1655,-11.3099 -13.358,-9.8513 -27.2036,-20.6599 -42.9402,-26.561 -34.7188,-13.0192 -85.217,6.7876 -110.0771,31.5305 -49.9826,49.747 -55.884,129.5395 -60.6616,195.5235 -2.9533,40.7874 -8.8649,98.4104 13.9726,135.0328 20.9276,33.5598 71.0368,32.7997 104.9651,22.7911 7.8521,-2.3163 15.11,-5.8314 22.6629,-8.9108 0.077,-0.031 7.6679,-5.1756 7.6679,-3.7699 0,3.2276 -15.7531,33.9086 -17.7213,39.0704 -9.8279,25.7743 -14.6449,53.9387 -20.2774,80.8826 -23.3887,111.8837 -40.4823,278.1855 103.6019,311.5353 15.7903,3.6548 31.7893,8.1769 48.0522,8.9108 81.9803,3.6994 135.7863,-34.0724 171.9316,-106.0728 12.5171,-24.9338 21.3768,-49.946 22.8333,-78.1409 3.5102,-67.9532 -24.3084,-132.0297 -35.4428,-198.0939 -2.6918,-15.9716 -5.5166,-32.1269 -8.8607,-47.9812 -1.2588,-5.9682 -5.1119,-12.9498 -5.1119,-18.8498 0,-1.7136 -1.2865,-4.0088 0,-5.1408 0.2209,-0.1944 33.7658,-2.0931 36.6355,-2.5704 18.2215,-3.0311 34.771,-8.6661 51.9714,-15.0798 16.6154,-6.1956 33.0061,-11.447 47.8818,-21.4202 9.9171,-6.6488 20.5275,-13.0497 29.1381,-21.4202 1.7327,-1.6845 2.6953,-5.1409 5.1119,-5.1409 0.9548,0 -2.5486,12.6101 -2.556,12.6808 -1.3206,12.7117 0,26.2944 0,39.0704 0,47.3113 -1.7292,142.6798 74.6343,100.9319 13.8729,-7.5842 12.1425,-8.9234 22.6629,-20.2206 9.393,-10.0865 20.3841,-19.5455 29.1381,-30.1596 20.719,-25.1216 36.1863,-56.7603 48.0522,-87.0517 8.9166,-22.7625 11.2463,-47.6952 11.2463,-71.9718 v -22.7911 c 0,-1.7173 0.8221,-8.7676 0,-6.169 -12.8649,40.6609 -0.5228,111.288 11.4166,152.5117 6.282,21.69 10.7478,43.8519 22.8333,63.2324 5.5858,8.9574 10.0514,18.5387 15.1655,27.7606 1.8367,3.3121 3.6846,6.1046 6.3047,8.7394 0.4271,0.4295 1.1928,1.9766 1.1928,1.3709"
           id="path7550"
           sodipodi:nodetypes="cssssssssssssssssssssssssscssssssscssssc" />
        <path
           style="fill:none;stroke:#f29f05;stroke-width:50;stroke-linecap:round;stroke-linejoin:miter;stroke-miterlimit:4;stroke-dasharray:none;stroke-opacity:1"
           d="m 2693.0924,3136.4328 c -14.3898,-10.7053 -32.9982,-20.8629 -51.801,-16.4507 -25.8768,6.072 -32.7383,63.3641 -34.0796,81.9108 -4.4516,61.5556 -9.8624,137.624 37.8283,185.5845 8.3115,8.3584 18.0502,16.5959 30.3309,17.6502 20.1257,1.7278 36.399,-13.3415 51.9713,-23.9906 24.8482,-16.9923 53.1861,-28.6846 44.5975,-65.7462"
           id="path7552" />
        <path
           style="fill:none;stroke:#f29f05;stroke-width:50;stroke-linecap:round;stroke-linejoin:miter;stroke-miterlimit:4;stroke-dasharray:none;stroke-opacity:1"
           d="m 2974.5711,3174.7027 c 2.9821,-2.033 -13.5287,-16.5529 -15.1655,-17.6502 -16.7425,-11.2249 -29.9582,-22.5014 -48.0522,-7.5399 -45.281,37.4416 -68.1298,180.0188 -39.1915,230.8239 5.8473,10.2658 13.3561,29.2323 26.5821,32.9014 11.8607,3.2905 21.9166,-11.7796 27.7748,-19.0211 32.0456,-39.6121 48.0523,-111.166 48.0523,-161.4225 0,-10.9723 2.2989,-20.7778 3.7487,-31.5305 0.094,-0.6971 -0.055,-19.0212 0,-19.0212 3.7361,0 6.0588,21.113 6.3047,22.7911 5.8371,39.8325 21.5854,74.5473 34.0796,112.2418 8.9294,26.9396 29.9135,85.7978 53.1642,102.3028 13.4294,9.5332 38.7387,24.7324 55.5497,16.2794 3.6428,-1.8318 20.0023,-19.7291 18.9142,-22.6198 -1.4685,-3.901 -8.1663,-1.6758 -12.2495,-2.5137"
           id="path7554"
           sodipodi:nodetypes="csssssssssssssc" />
      </g>
      <path
         style="fill:#f29f05;fill-opacity:1;stroke:#f29f05;stroke-width:1px;stroke-linecap:butt;stroke-linejoin:miter;stroke-opacity:1"
         d="m 1676.3702,2670.4594 c -1.3425,0 -1.0465,0.2021 -1.7466,-0.15 -2.7041,-1.3597 -4.3994,-3.7719 -6.7946,-5.5264 -3.0543,-2.2373 -7.5199,-4.4172 -11.0546,-5.8263 -6.4254,-2.5614 -11.5827,-4.6574 -18.6372,-5.3765 -1.8579,-0.1893 -3.6751,-0.477 -5.538,-0.1499 -5.2234,0.9172 -9.682,2.5214 -11.2249,8.0326 -0.4321,1.5431 -0.7206,3.4504 -0.4686,5.0551 0.6441,4.1027 6.5636,9.3557 9.7979,11.5241 4.1258,2.7661 9.542,5.3288 14.5477,5.505 5.4395,0.1914 10.6842,-1.6003 16.1026,-1.885 3.6117,-0.1897 6.9784,0.6815 10.586,-0.1499 3.5141,-0.8099 9.6865,-4.9815 6.6455,-9.3178 -1.4497,-2.0671 -0.3515,-0.2688 -2.2152,-1.735 -0.8472,-0.6666 -1.4846,-1.5833 -2.3643,-2.2063 -2.5643,-1.8165 -6.2686,-3.0426 -9.1802,-4.0913 -1.9945,-0.7184 -5.7461,-1.7561 -7.5827,-2.8489 -2.407,-1.4321 -4.3128,-3.5747 -6.4751,-5.355"
         id="path7558" />
    </g>
  </g>
  <g
     inkscape:groupmode="layer"
     id="layer7"
     inkscape:label="Image 1"
     transform="translate(-858.15704,-2553.8038)">
    <g
       id="g6078"
       transform="matrix(0.20135033,0,0,0.20135033,685.36684,2039.5946)"
       style="stroke:#f2b705;stroke-opacity:1">
      <g
         id="g5590"
         transform="translate(-824.01754,-348.47989)"
         style="display:inline;stroke:#f2b705;stroke-opacity:1">
        <path
           style="fill:none;stroke:#f2b705;stroke-width:50;stroke-linecap:round;stroke-linejoin:miter;stroke-miterlimit:4;stroke-dasharray:none;stroke-opacity:1"
           d="m 1936.691,2937.1738 c 2.2471,12.0049 5.6127,23.8536 6.7413,36.0148 0.1638,1.7646 -2.3991,-2.6215 -3.7487,-3.7699 -4.7461,-4.0386 -10.148,-7.6096 -15.1655,-11.3099 -13.358,-9.8513 -27.2036,-20.6599 -42.9402,-26.561 -34.7188,-13.0192 -85.217,6.7876 -110.0771,31.5305 -49.9826,49.747 -55.884,129.5395 -60.6616,195.5235 -2.9533,40.7874 -8.8649,98.4104 13.9726,135.0328 20.9276,33.5598 71.0368,32.7997 104.9651,22.7911 7.8521,-2.3163 15.11,-5.8314 22.6629,-8.9108 0.077,-0.031 7.6679,-5.1756 7.6679,-3.7699 0,3.2276 -15.7531,33.9086 -17.7213,39.0704 -9.8279,25.7743 -14.6449,53.9387 -20.2774,80.8826 -23.3887,111.8837 -40.4823,278.1855 103.6019,311.5353 15.7903,3.6548 31.7893,8.1769 48.0522,8.9108 81.9803,3.6994 135.7863,-34.0724 171.9316,-106.0728 12.5171,-24.9338 21.3768,-49.946 22.8333,-78.1409 3.5102,-67.9532 -24.3084,-132.0297 -35.4428,-198.0939 -2.6918,-15.9716 -5.5166,-32.1269 -8.8607,-47.9812 -1.2588,-5.9682 -5.1119,-12.9498 -5.1119,-18.8498 0,-1.7136 -1.2865,-4.0088 0,-5.1408 0.2209,-0.1944 33.7658,-2.0931 36.6355,-2.5704 18.2215,-3.0311 34.771,-8.6661 51.9714,-15.0798 16.6154,-6.1956 33.0061,-11.447 47.8818,-21.4202 9.9171,-6.6488 20.5275,-13.0497 29.1381,-21.4202 1.7327,-1.6845 2.6953,-5.1409 5.1119,-5.1409 0.9548,0 -2.5486,12.6101 -2.556,12.6808 -1.3206,12.7117 0,26.2944 0,39.0704 0,47.3113 -1.7292,142.6798 74.6343,100.9319 13.8729,-7.5842 12.1425,-8.9234 22.6629,-20.2206 9.393,-10.0865 20.3841,-19.5455 29.1381,-30.1596 20.719,-25.1216 36.1863,-56.7603 48.0522,-87.0517 8.9166,-22.7625 11.2463,-47.6952 11.2463,-71.9718 v -22.7911 c 0,-1.7173 0.8221,-8.7676 0,-6.169 -12.8649,40.6609 -0.5228,111.288 11.4166,152.5117 6.282,21.69 10.7478,43.8519 22.8333,63.2324 5.5858,8.9574 10.0514,18.5387 15.1655,27.7606 1.8367,3.3121 3.6846,6.1046 6.3047,8.7394 0.4271,0.4295 1.1928,1.9766 1.1928,1.3709"
           id="path5500"
           sodipodi:nodetypes="cssssssssssssssssssssssssscssssssscssssc" />
        <path
           style="fill:none;stroke:#f2b705;stroke-width:50;stroke-linecap:round;stroke-linejoin:miter;stroke-miterlimit:4;stroke-dasharray:none;stroke-opacity:1"
           d="m 2693.0924,3136.4328 c -14.3898,-10.7053 -32.9982,-20.8629 -51.801,-16.4507 -25.8768,6.072 -32.7383,63.3641 -34.0796,81.9108 -4.4516,61.5556 -9.8624,137.624 37.8283,185.5845 8.3115,8.3584 18.0502,16.5959 30.3309,17.6502 20.1257,1.7278 36.399,-13.3415 51.9713,-23.9906 24.8482,-16.9923 53.1861,-28.6846 44.5975,-65.7462"
           id="path5502" />
        <path
           style="fill:none;stroke:#f2b705;stroke-width:50;stroke-linecap:round;stroke-linejoin:miter;stroke-miterlimit:4;stroke-dasharray:none;stroke-opacity:1"
           d="m 2974.5711,3174.7027 c 2.9821,-2.033 -13.5287,-16.5529 -15.1655,-17.6502 -16.7425,-11.2249 -29.9582,-22.5014 -48.0522,-7.5399 -45.281,37.4416 -68.1298,180.0188 -39.1915,230.8239 5.8473,10.2658 13.3561,29.2323 26.5821,32.9014 11.8607,3.2905 21.9166,-11.7796 27.7748,-19.0211 32.0456,-39.6121 48.0523,-111.166 48.0523,-161.4225 0,-10.9723 2.2989,-20.7778 3.7487,-31.5305 0.094,-0.6971 -0.055,-19.0212 0,-19.0212 3.7361,0 6.0588,21.113 6.3047,22.7911 5.8371,39.8325 21.5854,74.5473 34.0796,112.2418 8.9294,26.9396 29.9135,85.7978 53.1642,102.3028 13.4294,9.5332 38.7387,24.7324 55.5497,16.2794 3.6428,-1.8318 20.0023,-19.7291 18.9142,-22.6198 -1.4685,-3.901 -8.1663,-1.6758 -12.2495,-2.5137"
           id="path5504"
           sodipodi:nodetypes="csssssssssssssc" />
      </g>
      <path
         style="fill:#f2b705;fill-opacity:1;stroke:#f2b705;stroke-width:1px;stroke-linecap:butt;stroke-linejoin:miter;stroke-opacity:1"
         d="m 1676.3702,2670.4594 c -1.3425,0 -1.0465,0.2021 -1.7466,-0.15 -2.7041,-1.3597 -4.3994,-3.7719 -6.7946,-5.5264 -3.0543,-2.2373 -7.5199,-4.4172 -11.0546,-5.8263 -6.4254,-2.5614 -11.5827,-4.6574 -18.6372,-5.3765 -1.8579,-0.1893 -3.6751,-0.477 -5.538,-0.1499 -5.2234,0.9172 -9.682,2.5214 -11.2249,8.0326 -0.4321,1.5431 -0.7206,3.4504 -0.4686,5.0551 0.6441,4.1027 6.5636,9.3557 9.7979,11.5241 4.1258,2.7661 9.542,5.3288 14.5477,5.505 5.4395,0.1914 10.6842,-1.6003 16.1026,-1.885 3.6117,-0.1897 6.9784,0.6815 10.586,-0.1499 3.5141,-0.8099 9.6865,-4.9815 6.6455,-9.3178 -1.4497,-2.0671 -0.3515,-0.2688 -2.2152,-1.735 -0.8472,-0.6666 -1.4846,-1.5833 -2.3643,-2.2063 -2.5643,-1.8165 -6.2686,-3.0426 -9.1802,-4.0913 -1.9945,-0.7184 -5.7461,-1.7561 -7.5827,-2.8489 -2.407,-1.4321 -4.3128,-3.5747 -6.4751,-5.355"
         id="path5925" />
    </g>
  </g>
</svg>
